	<svg version="1.0" id="Layer_1" xmlns="http://www.w3.org/2000/svg" xmlns:xlink="http://www.w3.org/1999/xlink" x="0px" y="0px"
	 viewBox="0 0 385.7 112.3" style="enable-background:new 0 0 385.7 112.3;" xml:space="preserve" width="400">
	<g>
		<g>
			<path d="M64,28.6l21.9,55.1H70.1L66,73H44.5l-4.1,10.7h-15l21.9-55.1H64z M48.8,61.9h12.9l-6.3-16.3h-0.4L48.8,61.9z"/>
			<path d="M125,83.7c-1.1-1.5-1.8-4.9-2.3-10.6c-0.4-6.3-3.1-7.7-8.1-7.7h-9.9v18.3H90.1V28.6h27.8c14.3,0,21.3,6.7,21.3,17.5
				c0,8-5,13.3-11.7,14.2c5.7,1.1,9,4.4,9.6,10.8c0.8,8.2,1,10.7,2.9,12.7H125z M115.3,54c6.3,0,9.4-1.6,9.4-6.6
				c0-4.5-3.1-6.8-9.4-6.8h-10.6V54H115.3z"/>
			<path d="M161.8,83.7V40.9h-18.9V28.6h52.8v12.2h-19.2v42.8H161.8z"/>
			<path d="M217,28.6v42.8h27.3v12.2h-42.2V28.6H217z"/>
			<path d="M285.1,28.6L307,83.7h-15.8L287.1,73h-21.5l-4.1,10.7h-15l21.9-55.1H285.1z M269.8,61.9h12.9l-6.3-16.3h-0.4L269.8,61.9z"
				/>
			<path d="M339.9,83.7h-28.7V28.6H338c14.2,0,20.6,5.9,20.6,15.2c0,6.1-3.9,10.3-9.8,11.3c6.5,1.3,11.5,5.6,11.5,13.5
				C360.3,78.1,352.7,83.7,339.9,83.7z M325.6,50.5h10.5c5.1,0,7.1-2.3,7.1-4.9c0-2.9-2-5.2-7.1-5.2h-10.5V50.5z M325.6,61.6v10.2
				h11.9c5.2,0,7.4-2.1,7.4-5.1c0-3-2.3-5.2-7.5-5.2H325.6z"/>
		</g>
	</g>
	</svg>